<svg width="51" height="83" viewBox="0 0 51 83" fill="none" xmlns="http://www.w3.org/2000/svg">
<path d="M1.93799 80.9536C4.81865 80.9536 8.36303 81.5566 10.9266 80.0746C14.6246 77.9367 18.0864 74.6516 21.0637 71.6247C24.6775 67.9507 28.0384 64.0024 30.5202 59.4602C33.817 53.4265 35.8794 46.5656 35.8794 39.6681C35.8794 37.231 35.6242 34.6927 35.6242 32.3383C35.6242 31.0653 34.255 29.3932 33.8236 28.0992C33.2523 26.3852 32.123 24.8573 31.2858 23.3922C30.1097 21.334 28.6215 19.4179 27.3302 17.4092C26.3728 15.9199 25.3874 14.318 24.1402 13.0708" stroke="currentColor" stroke-width="3" stroke-linecap="round"/>
<path d="M14.9531 30.9347C15.0843 29.3601 16.0851 27.9392 16.4276 26.3978C16.7521 24.9375 17.2787 23.6166 17.5618 22.1162C17.8296 20.6971 18.2211 19.463 18.2707 17.9763C18.2799 17.7013 18.4475 16.0428 18.6535 15.878C19.96 14.8328 18.7811 10.2425 18.7811 8.73242" stroke="currentColor" stroke-width="3" stroke-linecap="round"/>
<path d="M49.4047 15.8781C46.403 15.8781 43.1121 16.279 40.2176 15.3677C38.0757 14.6934 35.9696 14.0802 33.951 13.0709C32.57 12.3804 31.527 11.4579 30.2648 10.6465C28.8215 9.71869 27.6069 8.66799 26.3093 7.56998C24.9659 6.4333 24.4436 5.2677 22.6089 5.15978C22.0209 5.12519 20.5749 3.94088 20.1136 3.57188C19.9285 3.42378 18.5257 1.25605 18.5257 2.225C18.5257 3.72581 20.0429 7.33594 18.2705 8.22216" stroke="currentColor" stroke-width="3" stroke-linecap="round"/>
</svg>
