<svg width="25" height="19" viewBox="0 0 25 19" fill="none" xmlns="http://www.w3.org/2000/svg">
<path fill-rule="evenodd" clip-rule="evenodd" d="M1.63636 0.146484C0.732625 0.146484 0 0.879117 0 1.78285V16.5101C0 17.4139 0.732625 18.1465 1.63636 18.1465H22.9091C23.8129 18.1465 24.5455 17.4139 24.5455 16.5101V1.78285C24.5455 0.879117 23.8129 0.146484 22.9091 0.146484H1.63636ZM1.63636 1.78285H22.9091V3.29639C22.7739 3.29626 22.6371 3.33332 22.5146 3.41111L12.2727 9.91072L2.03092 3.41111C1.90834 3.33332 1.77153 3.29626 1.63636 3.29639V1.78285ZM1.63636 4.90498V16.5101H22.9091V4.90498L12.6673 11.4046C12.4264 11.5574 12.119 11.5574 11.8782 11.4046L1.63636 4.90498Z" fill="currentColor"/>
</svg>
